<?xml version="1.0" encoding="iso-8859-1"?>
<!-- Generator: Adobe Illustrator 22.0.0, SVG Export Plug-In . SVG Version: 6.00 Build 0)  -->
<svg version="1.1" id="Capa_1" xmlns="http://www.w3.org/2000/svg" xmlns:xlink="http://www.w3.org/1999/xlink" x="0px" y="0px"
	 viewBox="0 0 512 512" style="enable-background:new 0 0 512 512;" xml:space="preserve">
<g>
	<g>
		<path style="fill:#FCEE56;" d="M479.106,464.13h-188.13c-5.523,0-10-4.477-10-10v-31.626h208.13v31.626
			C489.106,459.653,484.629,464.13,479.106,464.13z"/>
		<path style="fill:#FBD307;" d="M472.455,422.504v41.626h6.349c5.69,0,10.302-4.612,10.302-10.302v-31.324H472.455z"/>
		<path style="fill:#FCEE56;" d="M229.35,464.13h-98.634c-5.523,0-10-4.477-10-10v-31.626H239.35v31.626
			C239.35,459.653,234.872,464.13,229.35,464.13z"/>
		<path style="fill:#FBD307;" d="M222.699,422.504v41.626h6.349c5.69,0,10.302-4.612,10.302-10.302v-31.324H222.699z"/>
		<path style="fill:#62B4FD;" d="M501.698,422.504H83.252V175.87h391.18c2.732,0,5.353,1.085,7.285,3.017l27.266,27.267
			c1.932,1.932,3.017,4.552,3.017,7.284v198.764C512,417.892,507.388,422.504,501.698,422.504z"/>
		<path style="fill:#27A2FB;" d="M491.187,188.358v202.927c0,5.747-4.659,10.406-10.406,10.406H83.252v20.813h418.446
			c5.69,0,10.302-4.612,10.302-10.302V213.438c0-2.732-1.085-5.352-3.017-7.284L491.187,188.358z"/>
		<g>
			<circle style="fill:#756E78;" cx="391.285" cy="298.667" r="77.008"/>
			<circle style="fill:#C3BEC6;" cx="391.285" cy="298.667" r="23.102"/>
		</g>
	</g>
	<g>
		<circle style="fill:#FBD307;" cx="282.016" cy="135.285" r="87.415"/>
		<path style="fill:#E6B700;" d="M337.836,68.018c12.579,15.142,20.148,34.595,20.148,55.819c0,48.278-39.137,87.415-87.415,87.415
			c-21.224,0-40.677-7.569-55.819-20.148c16.034,19.301,40.213,31.595,67.267,31.595c48.278,0,87.415-39.137,87.415-87.415
			C369.431,108.231,357.137,84.052,337.836,68.018z"/>
	</g>
	<path style="fill:#665E66;" d="M439.402,303.187l-19.896-19.896h8.998c4.267,0,7.726-3.459,7.726-7.726
		c0-4.267-3.459-7.726-7.726-7.726h-28.137l6.363-6.363c3.018-3.017,3.018-7.909,0-10.927c-3.017-3.017-7.909-3.017-10.927,0
		l-19.896,19.896v-8.999c0-4.267-3.459-7.726-7.726-7.726c-4.267,0-7.726,3.459-7.726,7.726v28.137l-6.363-6.363
		c-3.017-3.017-7.909-3.017-10.927,0c-3.018,3.017-3.018,7.909,0,10.927l19.896,19.896h-8.998c-4.267,0-7.726,3.459-7.726,7.726
		c0,4.267,3.459,7.726,7.726,7.726h28.137l-6.363,6.363c-3.018,3.017-3.018,7.909,0,10.927c1.509,1.509,3.486,2.263,5.463,2.263
		c1.977,0,3.955-0.755,5.463-2.263l19.896-19.896v8.998c0,4.267,3.459,7.726,7.726,7.726c4.267,0,7.726-3.459,7.726-7.726v-28.137
		l6.363,6.363c1.509,1.509,3.486,2.263,5.463,2.263s3.955-0.755,5.463-2.263C442.42,311.096,442.42,306.204,439.402,303.187z
		 M375.908,298.667c0-8.478,6.898-15.376,15.376-15.376s15.376,6.897,15.376,15.376s-6.897,15.376-15.376,15.376
		S375.908,307.145,375.908,298.667z"/>
	<g>
		<g>
			<path style="fill:#FBD307;" d="M439.753,464.128V448.52c0-4.265,3.461-7.726,7.726-7.726s7.726,3.461,7.726,7.726v15.607H439.753
				z"/>
		</g>
		<g>
			<path style="fill:#FBD307;" d="M398.124,464.128V448.52c0-4.265,3.461-7.726,7.726-7.726c4.275,0,7.726,3.461,7.726,7.726v15.607
				H398.124z"/>
		</g>
		<g>
			<path style="fill:#FBD307;" d="M371.957,448.52v15.607h-15.453V448.52c0-4.265,3.461-7.726,7.726-7.726
				C368.496,440.794,371.957,444.255,371.957,448.52z"/>
		</g>
		<g>
			<path style="fill:#FBD307;" d="M330.328,448.52v15.607h-15.453V448.52c0-4.265,3.461-7.726,7.726-7.726
				C326.866,440.794,330.328,444.255,330.328,448.52z"/>
		</g>
	</g>
	<g>
		<g>
			<path style="fill:#FBD307;" d="M208.57,448.52v15.607h-15.453V448.52c0-4.265,3.461-7.726,7.726-7.726
				C205.109,440.794,208.57,444.255,208.57,448.52z"/>
		</g>
		<g>
			<path style="fill:#FBD307;" d="M151.488,464.128V448.52c0-4.265,3.461-7.726,7.726-7.726c4.275,0,7.726,3.461,7.726,7.726v15.607
				H151.488z"/>
		</g>
	</g>
	<g>
		<path style="fill:#756E78;" d="M183.154,311.37H83.252c-4.142,0-7.5-3.358-7.5-7.5s3.358-7.5,7.5-7.5h99.902
			c4.142,0,7.5,3.358,7.5,7.5S187.296,311.37,183.154,311.37z"/>
	</g>
	<g>
		<path style="fill:#756E78;" d="M158.179,381.094h-26.016c-1.989,0-3.897-0.79-5.303-2.197l-18.616-18.617H83.252
			c-4.142,0-7.5-3.358-7.5-7.5s3.358-7.5,7.5-7.5h28.098c1.989,0,3.897,0.79,5.303,2.197l18.616,18.617h22.91
			c4.142,0,7.5,3.358,7.5,7.5S162.321,381.094,158.179,381.094z"/>
	</g>
	<g>
		<path style="fill:#756E78;" d="M111.35,262.459H83.252c-4.142,0-7.5-3.358-7.5-7.5s3.358-7.5,7.5-7.5h24.991l18.616-18.616
			c1.406-1.407,3.314-2.197,5.303-2.197h26.016c4.142,0,7.5,3.358,7.5,7.5s-3.358,7.5-7.5,7.5h-22.91l-18.616,18.616
			C115.247,261.669,113.339,262.459,111.35,262.459z"/>
	</g>
	<g>
		<path style="fill:#FCEE56;" d="M202.927,276.371c-15.163,0-27.499,12.336-27.499,27.499c0,15.163,12.336,27.499,27.499,27.499
			s27.498-12.336,27.498-27.499C230.426,288.707,218.09,276.371,202.927,276.371z"/>
		<path style="fill:#FCEE56;" d="M177.951,346.095c-15.162,0-27.498,12.336-27.498,27.499c0,15.162,12.336,27.499,27.498,27.499
			s27.498-12.336,27.498-27.499C205.45,358.431,193.114,346.095,177.951,346.095z"/>
		<path style="fill:#FCEE56;" d="M177.951,261.645c15.162,0,27.498-12.336,27.498-27.498s-12.336-27.499-27.498-27.499
			s-27.498,12.336-27.498,27.499S162.789,261.645,177.951,261.645z"/>
	</g>
	<path style="fill:#FBA615;" d=""/>
	<g>
		<g>
			<path style="fill:#27A2FB;" d="M278.894,269.97h-31.22c-4.267,0-7.726-3.459-7.726-7.726c0-4.267,3.459-7.726,7.726-7.726h31.22
				c4.267,0,7.726,3.459,7.726,7.726C286.621,266.511,283.161,269.97,278.894,269.97z"/>
		</g>
		<g>
			<path style="fill:#27A2FB;" d="M278.894,311.596h-31.22c-4.267,0-7.726-3.459-7.726-7.726c0-4.267,3.459-7.726,7.726-7.726h31.22
				c4.267,0,7.726,3.459,7.726,7.726C286.621,308.137,283.161,311.596,278.894,311.596z"/>
		</g>
		<g>
			<path style="fill:#27A2FB;" d="M278.894,353.222h-31.22c-4.267,0-7.726-3.459-7.726-7.726c0-4.267,3.459-7.726,7.726-7.726h31.22
				c4.267,0,7.726,3.459,7.726,7.726C286.621,349.763,283.161,353.222,278.894,353.222z"/>
		</g>
	</g>
	<g>
		<path style="fill:#C3BEC6;" d="M0,149.749v21.022c0,5.69,4.612,10.302,10.302,10.302h31.324v272.755
			c0,5.69,4.612,10.302,10.302,10.302H72.95c5.69,0,10.302-4.612,10.302-10.302V149.749c0-5.69-4.612-10.302-10.302-10.302H10.302
			C4.612,139.447,0,144.059,0,149.749z"/>
		<path style="fill:#B4ACB7;" d="M66.602,139.447v301.789c0,3.448-2.795,6.244-6.244,6.244H41.626v6.349
			c0,5.69,4.612,10.302,10.302,10.302H72.95c5.69,0,10.302-4.612,10.302-10.302V149.749c0-5.69-4.612-10.302-10.302-10.302H66.602z"
			/>
	</g>
</g>
<g>
</g>
<g>
</g>
<g>
</g>
<g>
</g>
<g>
</g>
<g>
</g>
<g>
</g>
<g>
</g>
<g>
</g>
<g>
</g>
<g>
</g>
<g>
</g>
<g>
</g>
<g>
</g>
<g>
</g>
</svg>
