<?xml version="1.0" encoding="iso-8859-1"?>
<!-- Generator: Adobe Illustrator 22.0.0, SVG Export Plug-In . SVG Version: 6.00 Build 0)  -->
<svg version="1.1" id="Capa_1" xmlns="http://www.w3.org/2000/svg" xmlns:xlink="http://www.w3.org/1999/xlink" x="0px" y="0px"
	 viewBox="0 0 512 512" style="enable-background:new 0 0 512 512;" xml:space="preserve">
<g>
	<g>
		<g>
			<rect x="403.484" y="148.923" style="fill:#C3BEC6;" width="60.61" height="214.154"/>
		</g>
		<g>
			<path style="fill:#B4ACB7;" d="M403.484,148.923v16.163h33.335c5.579,0,10.102,4.523,10.102,10.102v161.626
				c0,5.579-4.523,10.102-10.102,10.102h-33.335v16.163h60.61V148.923H403.484z"/>
		</g>
	</g>
	<g>
		<g>
			
				<rect x="225.695" y="-28.361" transform="matrix(4.504734e-11 1 -1 4.504734e-11 334.7165 -177.2835)" style="fill:#C3BEC6;" width="60.61" height="214.154"/>
		</g>
		<g>
			<path style="fill:#B4ACB7;" d="M363.077,48.412h-16.163v33.335c0,5.579-4.523,10.102-10.102,10.102H175.187
				c-5.579,0-10.102-4.523-10.102-10.102V48.412h-16.163v60.61h214.154V48.412z"/>
		</g>
	</g>
	<g>
		<g>
			
				<rect x="225.695" y="326.206" transform="matrix(4.504734e-11 1 -1 4.504734e-11 689.2835 177.2835)" style="fill:#C3BEC6;" width="60.61" height="214.154"/>
		</g>
		<g>
			<path style="fill:#B4ACB7;" d="M363.077,402.979h-16.163v33.335c0,5.579-4.523,10.102-10.102,10.102H175.187
				c-5.579,0-10.102-4.523-10.102-10.102v-33.335h-16.163v60.61h214.154V402.979z"/>
		</g>
	</g>
	<g>
		<rect x="363.077" y="7.5" style="fill:#FCEE56;" width="141.423" height="141.423"/>
	</g>
	<path style="fill:#FBD307;" d="M486,7.5v112.923c0,5.523-4.477,10-10,10H363.077v18.5H504.5V7.5H486z"/>
	<g>
		
			<rect x="393.382" y="37.805" transform="matrix(-1.836970e-16 1 -1 -1.836970e-16 512 -355.5772)" style="fill:#FBA615;" width="80.813" height="80.813"/>
	</g>
	<g>
		<rect x="363.077" y="363.077" style="fill:#FCEE56;" width="141.423" height="141.423"/>
	</g>
	<path style="fill:#FBD307;" d="M486,363.077V476c0,5.523-4.477,10-10,10H363.077v18.5H504.5V363.077H486z"/>
	<g>
		
			<rect x="393.382" y="393.382" transform="matrix(-1.836970e-16 1 -1 -1.836970e-16 867.5772 -1.307399e-12)" style="fill:#FBA615;" width="80.813" height="80.813"/>
	</g>
	<g>
		<g>
			<rect x="47.907" y="148.923" style="fill:#C3BEC6;" width="60.61" height="214.154"/>
		</g>
		<g>
			<path style="fill:#B4ACB7;" d="M47.907,148.923v16.163h33.335c5.579,0,10.102,4.523,10.102,10.102v161.626
				c0,5.579-4.523,10.102-10.102,10.102H47.907v16.163h60.61V148.923H47.907z"/>
		</g>
	</g>
	<g>
		<rect x="7.5" y="7.5" style="fill:#FCEE56;" width="141.423" height="141.423"/>
	</g>
	<path style="fill:#FBD307;" d="M130.423,7.5v112.923c0,5.523-4.477,10-10,10H7.5v18.5h141.423V7.5H130.423z"/>
	<g>
		
			<rect x="37.805" y="37.805" transform="matrix(-1.836970e-16 1 -1 -1.836970e-16 156.4228 9.237056e-13)" style="fill:#FBA615;" width="80.813" height="80.813"/>
	</g>
	<g>
		<rect x="7.5" y="363.077" style="fill:#FCEE56;" width="141.423" height="141.423"/>
	</g>
	<path style="fill:#FBD307;" d="M130.423,363.077V476c0,5.523-4.477,10-10,10H7.5v18.5h141.423V363.077H130.423z"/>
	<g>
		
			<rect x="37.805" y="393.382" transform="matrix(-1.836970e-16 1 -1 -1.836970e-16 512 355.5772)" style="fill:#FBA615;" width="80.813" height="80.813"/>
	</g>
	<g>
		<path d="M464.094,226c4.143,0,7.5-3.358,7.5-7.5v-62.077H504.5c4.143,0,7.5-3.358,7.5-7.5V7.5c0-4.142-3.357-7.5-7.5-7.5H363.077
			c-4.143,0-7.5,3.358-7.5,7.5v33.412H156.423V7.5c0-4.142-3.357-7.5-7.5-7.5H7.5C3.357,0,0,3.358,0,7.5v141.423
			c0,4.142,3.357,7.5,7.5,7.5h32.906v199.154H7.5c-4.143,0-7.5,3.358-7.5,7.5V504.5c0,4.142,3.357,7.5,7.5,7.5h141.423
			c4.143,0,7.5-3.358,7.5-7.5v-33.412h199.154V504.5c0,4.142,3.357,7.5,7.5,7.5H504.5c4.143,0,7.5-3.358,7.5-7.5V363.077
			c0-4.142-3.357-7.5-7.5-7.5h-32.906V253.563c0-4.142-3.357-7.5-7.5-7.5s-7.5,3.358-7.5,7.5v102.015h-15.305v-50.079
			c0-4.142-3.357-7.5-7.5-7.5s-7.5,3.358-7.5,7.5v50.079h-15.306V156.423h15.306v50.079c0,4.142,3.357,7.5,7.5,7.5
			s7.5-3.358,7.5-7.5v-50.079h15.305V218.5C456.594,222.642,459.951,226,464.094,226z M370.577,15H497v126.423H370.577V15z M15,15
			h126.423v126.423H15V15z M55.406,156.423h15.305v50.079c0,4.142,3.357,7.5,7.5,7.5s7.5-3.358,7.5-7.5v-50.079h15.306v199.154
			H85.711v-50.079c0-4.142-3.357-7.5-7.5-7.5s-7.5,3.358-7.5,7.5v50.079H55.406V156.423z M141.423,497H15V370.577h126.423V497z
			 M497,497H370.577V370.577H497V497z M395.983,355.577h-32.906c-4.143,0-7.5,3.358-7.5,7.5v32.401H219.563
			c-4.143,0-7.5,3.358-7.5,7.5s3.357,7.5,7.5,7.5h136.015v15.305h-50.079c-4.143,0-7.5,3.358-7.5,7.5s3.357,7.5,7.5,7.5h50.079
			v15.305H156.423v-15.305h50.079c4.143,0,7.5-3.358,7.5-7.5s-3.357-7.5-7.5-7.5h-50.079v-15.305h28.108c4.143,0,7.5-3.358,7.5-7.5
			s-3.357-7.5-7.5-7.5h-28.108v-32.401c0-4.142-3.357-7.5-7.5-7.5h-32.906V156.423h32.906c4.143,0,7.5-3.358,7.5-7.5v-32.401h48.16
			c4.143,0,7.5-3.358,7.5-7.5s-3.357-7.5-7.5-7.5h-48.16V86.216h50.079c4.143,0,7.5-3.358,7.5-7.5s-3.357-7.5-7.5-7.5h-50.079
			V55.912h199.154v15.305h-50.079c-4.143,0-7.5,3.358-7.5,7.5s3.357,7.5,7.5,7.5h50.079v15.305H239.5c-4.143,0-7.5,3.358-7.5,7.5
			s3.357,7.5,7.5,7.5h116.077v32.401c0,4.142,3.357,7.5,7.5,7.5h32.906V355.577z"/>
		<path d="M393.382,126.118h80.813c4.143,0,7.5-3.358,7.5-7.5V37.805c0-4.142-3.357-7.5-7.5-7.5h-80.813c-4.143,0-7.5,3.358-7.5,7.5
			v80.813C385.882,122.76,389.239,126.118,393.382,126.118z M400.882,45.305h65.813v65.813h-65.813V45.305z"/>
		<path d="M385.882,393.382v80.813c0,4.142,3.357,7.5,7.5,7.5h80.813c4.143,0,7.5-3.358,7.5-7.5v-80.813c0-4.142-3.357-7.5-7.5-7.5
			h-80.813C389.239,385.882,385.882,389.24,385.882,393.382z M400.882,400.882h65.813v65.813h-65.813V400.882z"/>
		<path d="M126.118,118.618V37.805c0-4.142-3.357-7.5-7.5-7.5H37.805c-4.143,0-7.5,3.358-7.5,7.5v80.813c0,4.142,3.357,7.5,7.5,7.5
			h80.813C122.761,126.118,126.118,122.76,126.118,118.618z M111.118,111.118H45.305V45.305h65.813V111.118z"/>
		<path d="M118.618,385.882H37.805c-4.143,0-7.5,3.358-7.5,7.5v80.813c0,4.142,3.357,7.5,7.5,7.5h80.813c4.143,0,7.5-3.358,7.5-7.5
			v-80.813C126.118,389.24,122.761,385.882,118.618,385.882z M111.118,466.695H45.305v-65.813h65.813V466.695z"/>
	</g>
</g>
<g>
</g>
<g>
</g>
<g>
</g>
<g>
</g>
<g>
</g>
<g>
</g>
<g>
</g>
<g>
</g>
<g>
</g>
<g>
</g>
<g>
</g>
<g>
</g>
<g>
</g>
<g>
</g>
<g>
</g>
</svg>
